<svg
  width="46"
  height="30"
  viewBox="0 0 38 30"
  fill="none"
  xmlns="http://www.w3.org/2000/svg"
  aria-label="Huawei Icon"
>
  <style type="text/css">
    .st0{fill:#020000;}
  </style>
  <path class="st0" d="M16.8,22.4c0.1-0.1,0.1-0.1,0.1-0.1c-2.7-5.8-6.1-11.2-10-16.2c0,0-3.1,3-2.9,5.9c0.1,1.4,0.8,2.7,1.8,3.6
    c2.7,2.7,9.4,6.1,10.9,6.8C16.7,22.5,16.7,22.5,16.8,22.4 M15.7,24.7c0-0.1-0.1-0.1-0.2-0.1l0,0L4.6,25c1.2,2.1,3.2,3.8,5.3,3.3
    c1.5-0.3,4.7-2.6,5.8-3.4l0,0C15.8,24.8,15.7,24.7,15.7,24.7 M15.9,23.7c0.1-0.1-0.1-0.2-0.1-0.2l0,0C11,20.3,1.7,15.3,1.7,15.3
    c-1.1,3.3,0.6,6.8,3.8,8.1c0.7,0.3,1.4,0.4,2.1,0.4C7.7,23.8,14.1,23.8,15.9,23.7C15.8,23.8,15.9,23.8,15.9,23.7 M16.6,1.4
    c-0.5,0.1-1.8,0.3-1.8,0.3c-1.7,0.4-3.1,1.7-3.6,3.4c-0.3,1.1-0.3,2.4,0,3.5c1,4.3,5.8,11.4,6.8,12.9c0.1,0.1,0.1,0.1,0.1,0.1
    c0.1,0,0.1-0.1,0.1-0.1l0,0C19.9,5.6,16.6,1.4,16.6,1.4 M20.3,21.5c0.1,0,0.1,0,0.2-0.1l0,0c1.1-1.5,5.8-8.6,6.8-12.9
    c0.3-1.1,0.3-2.4,0-3.5c-0.6-1.7-1.9-3-3.6-3.4c0,0-0.8-0.2-1.7-0.3c0,0-3.3,4.2-1.7,20.1l0,0C20.2,21.5,20.3,21.5,20.3,21.5
     M22.9,24.6c0,0-0.1,0-0.1,0.1c0,0.1,0,0.1,0.1,0.2l0,0c1.1,0.7,4.3,3,5.8,3.4c0,0,2.9,1,5.3-3.3L22.9,24.6L22.9,24.6z M36.9,15.3
    c0,0-9.4,5-14.2,8.3l0,0c-0.1,0.1-0.1,0.1-0.1,0.2c0,0,0.1,0.1,0.1,0.1l0,0h8.5c0.7-0.1,1.3-0.2,1.9-0.4c1.6-0.6,2.9-1.8,3.5-3.4
    C37.3,18.5,37.4,16.8,36.9,15.3 M21.8,22.4c0.1,0.1,0.1,0.1,0.2,0l0,0c1.6-0.8,8.1-4.1,10.9-6.8c1.1-0.9,1.7-2.2,1.8-3.6
    c0.2-3.1-2.9-5.9-2.9-5.9c-3.9,5-7.3,10.4-10,16.1l0,0C21.7,22.3,21.7,22.4,21.8,22.4"/>
</svg>